<svg width="107" height="100" viewBox="0 0 107 100" fill="none" xmlns="http://www.w3.org/2000/svg">
<g clip-path="url(#clip0_1_115)">
<path d="M75.1171 100H56.4016C46.7278 100 38.8891 92.1613 38.8891 82.4876V60.3267H68.0207V88.24C68.1501 89.9037 68.706 93.9582 71.8506 97.377C72.9585 98.58 74.1272 99.4214 75.1171 100Z" fill="url(#paint0_linear_1_115)"/>
<path opacity="0.25" d="M43.2863 62.1731C43.5033 69.14 43.7203 76.107 43.9373 83.0739C44.1657 90.1931 47.4778 96.2844 52.7696 98.6638C54.0222 99.2272 55.6744 99.9087 58.5487 99.7336C56.6909 99.3529 55.8267 98.679 55.0082 98.1612C49.4918 94.6892 48.2545 87.2198 47.7519 84.2008C47.6568 83.6183 47.592 83.131 47.554 82.815C47.2837 75.9699 47.0172 69.1248 46.7469 62.2797L43.2863 62.1731Z" fill="black"/>
<path opacity="0.25" d="M68.0207 65.9573C63.5893 66.5131 58.7125 66.8671 53.4549 66.8671C49.0006 66.8671 44.1238 66.6121 38.8891 65.9573V60.6388H68.0207V65.9573Z" fill="black"/>
<path d="M53.512 22.9566H53.4549C40.0007 22.9566 27.5631 23.7866 16.3246 25.0657V33.9476C16.3246 49.5946 29.2382 62.2797 45.1669 62.2797H61.7352C77.664 62.2797 90.5775 49.5946 90.5775 33.9476V25.0734C79.3581 23.7904 66.9433 22.9566 53.5082 22.9528L53.512 22.9566Z" fill="url(#paint1_linear_1_115)"/>
<path d="M83.4012 21.411V34.1913C83.4012 45.7076 72.9851 55.0425 60.1363 55.0425H46.7735C33.9209 55.0425 23.5086 45.7076 23.5086 34.1913V21.4034C32.5732 20.4592 42.6048 19.8501 53.4587 19.8501H53.5044C64.3393 19.8539 74.3557 20.4668 83.4051 21.411H83.4012Z" fill="#3E256B"/>
<path opacity="0.25" d="M90.5814 25.0885V29.6151C80.2871 27.7572 67.7466 26.2915 53.4549 26.2877C39.1632 26.2877 26.619 27.7458 16.3285 29.5998V25.0771C20.699 24.4793 26.7713 23.775 34.0618 23.3448C40.5338 22.9641 45.2507 22.9603 53.0628 22.9565C61.1071 22.9527 66.0982 22.9489 72.8823 23.3486C80.2147 23.7827 86.287 24.4946 90.5852 25.0847L90.5814 25.0885Z" fill="black"/>
<path d="M46.5565 35.0288C46.4118 43.6594 33.7572 43.6556 33.6125 35.0288C33.7572 26.3982 46.4118 26.402 46.5565 35.0288Z" fill="white"/>
<path d="M73.4686 35.0289C73.3239 43.6595 60.6693 43.6557 60.5246 35.0289C60.6693 26.3983 73.3239 26.4021 73.4686 35.0289Z" fill="white"/>
<path d="M57.2924 44.1202H57.22C56.8469 44.1202 56.5081 44.3677 56.3863 44.7217C56.0703 45.6278 55.4954 46.355 54.7911 46.7509C54.4104 46.9641 53.984 47.0859 53.5424 47.0859C53.1008 47.0859 52.6744 46.9641 52.2937 46.7509C51.5856 46.3511 51.0145 45.6278 50.6985 44.7217C50.5767 44.3677 50.2379 44.1202 49.8648 44.1202H49.7925C49.1567 44.1354 48.6313 44.6532 48.6275 45.289V45.3004C48.6275 46.4654 49.229 47.5123 50.1998 48.2471C51.0754 48.9171 52.2518 49.3245 53.5424 49.3245C54.833 49.3245 56.0094 48.9171 56.885 48.2471C57.852 47.5123 58.4573 46.4654 58.4573 45.3004V45.289C58.4573 44.6532 57.9281 44.1354 57.2924 44.1202Z" fill="white"/>
<path d="M106.91 11.642C106.91 19.7967 99.9277 26.1241 91.9481 25.2294C80.3061 23.9236 67.4496 23.0822 53.5653 23.0784C39.5934 23.0746 26.6646 23.916 14.9617 25.2294C6.97834 26.1241 0 19.7967 0 11.642V4.47712C15.095 1.9302 33.1557 -0.00759176 53.5615 2.23607e-05C73.876 0.00763648 91.8605 1.93782 106.906 4.47712V11.642H106.91Z" fill="url(#paint2_linear_1_115)"/>
</g>
<defs>
<linearGradient id="paint0_linear_1_115" x1="38.8168" y1="60.3952" x2="76.7693" y2="98.3478" gradientUnits="userSpaceOnUse">
<stop offset="0.2" stop-color="#6948B8"/>
<stop offset="1" stop-color="#BDA4F2"/>
</linearGradient>
<linearGradient id="paint1_linear_1_115" x1="53.4549" y1="67.1185" x2="53.4549" y2="38.4894" gradientUnits="userSpaceOnUse">
<stop stop-color="#DC64C9"/>
<stop offset="1" stop-color="#5531A8"/>
</linearGradient>
<linearGradient id="paint2_linear_1_115" x1="0" y1="12.6585" x2="106.91" y2="12.6585" gradientUnits="userSpaceOnUse">
<stop offset="0.19" stop-color="#6948B8"/>
<stop offset="1" stop-color="#BDA4F2"/>
</linearGradient>
<clipPath id="clip0_1_115">
<rect width="106.91" height="100" fill="white"/>
</clipPath>
</defs>
</svg>
